<?xml version="1.0" encoding="utf-8"?>
<!-- Generator: Adobe Illustrator 27.0.0, SVG Export Plug-In . SVG Version: 6.00 Build 0)  -->
<svg version="1.1" id="레이어_1" xmlns="http://www.w3.org/2000/svg" xmlns:xlink="http://www.w3.org/1999/xlink" x="0px"
	 y="0px" viewBox="0 0 100 50" style="enable-background:new 0 0 100 50;" xml:space="preserve">
<style type="text/css">
	.st0{fill:#70C676;}
</style>
<path class="st0" d="M99.8,49.2c-4.1-1.8-12.2-10-12.2-19.9c0.2-1.4,0.4-2.8,0.4-4.3C88,11.2,77,0,63.4,0c-7.6,0-14.4,3.5-18.9,9
	C39.8,3.5,32.9,0,25.2,0C11.3,0,0,11.5,0,25.7v17.2C0,46.8,3.1,50,7,50s7-3.2,7-7.1V25.7c0-6.3,5-11.4,11.2-11.4s11.2,5.1,11.2,11.4
	v17.2c0,3.9,3.1,7.1,7,7.1c2.8,0,5.2-1.7,6.3-4.1c3.9,2.6,8.5,4.1,13.5,4.1h36.2C100,50,100.2,49.4,99.8,49.2z M63.4,36.7
	c-6.2,0-11.2-5.1-11.2-11.4s5-11.4,11.2-11.4c6.2,0,11.2,5.1,11.2,11.4C74.6,31.6,69.6,36.7,63.4,36.7z"/>
</svg>
