<?xml version="1.0" encoding="utf-8"?>
<!-- Generator: Adobe Illustrator 27.0.0, SVG Export Plug-In . SVG Version: 6.00 Build 0)  -->
<svg version="1.1" id="레이어_1" xmlns="http://www.w3.org/2000/svg" xmlns:xlink="http://www.w3.org/1999/xlink" x="0px"
	 y="0px" viewBox="0 0 20 20" style="enable-background:new 0 0 20 20;" xml:space="preserve">
<style type="text/css">
	.st0{fill:#FFFFFF;}
</style>
<path class="st0" d="M19,8h-7V1c0-0.55-0.45-1-1-1H9C8.45,0,8,0.45,8,1v7H1C0.45,8,0,8.45,0,9V11c0,0.55,0.45,1,1,1h7v7
	c0,0.55,0.45,1,1,1h2c0.55,0,1-0.45,1-1v-7h7c0.55,0,1-0.45,1-1V9C20,8.45,19.55,8,19,8z"/>
</svg>
