<?xml version="1.0" encoding="utf-8"?>
<!-- Generator: Adobe Illustrator 27.0.0, SVG Export Plug-In . SVG Version: 6.00 Build 0)  -->
<svg version="1.1" id="레이어_1" xmlns="http://www.w3.org/2000/svg" xmlns:xlink="http://www.w3.org/1999/xlink" x="0px"
	 y="0px" viewBox="0 0 20 20" style="enable-background:new 0 0 20 20;" xml:space="preserve">
<style type="text/css">
	.st0{fill:#666666;}
</style>
<g>
	<path class="st0" d="M8,2c3.31,0,6,2.69,6,6c0,1.34-0.44,2.61-1.26,3.67l-0.46,0.6l-0.6,0.46C10.61,13.56,9.34,14,8,14
		c-3.31,0-6-2.69-6-6S4.69,2,8,2 M8,0C3.58,0,0,3.58,0,8c0,4.42,3.58,8,8,8c1.85,0,3.55-0.63,4.9-1.69l5.5,5.5
		c0.12,0.12,0.28,0.18,0.44,0.18c0.16,0,0.32-0.06,0.44-0.18l0.54-0.54c0.24-0.24,0.24-0.64,0-0.88l-5.5-5.5
		C15.37,11.55,16,9.85,16,8C16,3.58,12.42,0,8,0L8,0z"/>
</g>
</svg>
