<?xml version="1.0" encoding="utf-8"?>
<!-- Generator: Adobe Illustrator 27.0.0, SVG Export Plug-In . SVG Version: 6.00 Build 0)  -->
<svg version="1.1" id="레이어_1" xmlns="http://www.w3.org/2000/svg" xmlns:xlink="http://www.w3.org/1999/xlink" x="0px"
	 y="0px" viewBox="0 0 20 20" style="enable-background:new 0 0 20 20;" xml:space="preserve">
<style type="text/css">
	.st0{fill:#FFFFFF;}
</style>
<path class="st0" d="M19.68,16.22L13.46,10l6.22-6.22c0.39-0.39,0.39-1.02,0-1.41l-2.05-2.05c-0.39-0.39-1.02-0.39-1.41,0L10,6.54
	L3.78,0.32c-0.39-0.39-1.02-0.39-1.41,0L0.32,2.37c-0.39,0.39-0.39,1.02,0,1.41L6.54,10l-6.22,6.22c-0.39,0.39-0.39,1.02,0,1.41
	l2.05,2.05c0.39,0.39,1.02,0.39,1.41,0L10,13.46l6.22,6.22c0.39,0.39,1.02,0.39,1.41,0l2.05-2.05
	C20.07,17.24,20.07,16.61,19.68,16.22z"/>
</svg>
